<svg xmlns="http://www.w3.org/2000/svg" enable-background="new 0 0 1024 1024" viewBox="0 0 1024 1024"><path fill="gray" d="M363,689.3c10.8-10.8,21.7-21.7,32.5-32.5c25.9-25.9,51.9-51.9,77.8-77.8c31.5-31.5,62.9-62.9,94.4-94.4
				c27.1-27.1,54.2-54.2,81.3-81.3c13.2-13.2,26.8-26.1,39.6-39.6c0.2-0.2,0.4-0.4,0.6-0.6c7.4-7.4,8-21,0-28.3
				c-8-7.3-20.4-7.9-28.3,0c-10.8,10.8-21.7,21.7-32.5,32.5c-25.9,25.9-51.9,51.9-77.8,77.8c-31.5,31.5-62.9,62.9-94.4,94.4
				c-27.1,27.1-54.2,54.2-81.3,81.3c-13.2,13.2-26.8,26.1-39.6,39.6c-0.2,0.2-0.4,0.4-0.6,0.6c-7.4,7.4-8,21,0,28.3
				C342.7,696.6,355.1,697.2,363,689.3L363,689.3z"/><path fill="gray" d="M689.3,661c-10.8-10.8-21.7-21.7-32.5-32.5c-25.9-25.9-51.9-51.9-77.8-77.8
				c-31.5-31.5-62.9-62.9-94.4-94.4c-27.1-27.1-54.2-54.2-81.3-81.3c-13.2-13.2-26.1-26.8-39.6-39.6c-0.2-0.2-0.4-0.4-0.6-0.6
				c-7.4-7.4-21-8-28.3,0c-7.3,8-7.9,20.4,0,28.3c10.8,10.8,21.7,21.7,32.5,32.5c25.9,25.9,51.9,51.9,77.8,77.8
				c31.5,31.5,62.9,62.9,94.4,94.4c27.1,27.1,54.2,54.2,81.3,81.3c13.2,13.2,26.1,26.8,39.6,39.6c0.2,0.2,0.4,0.4,0.6,0.6
				c7.4,7.4,21,8,28.3,0C696.6,681.3,697.2,668.9,689.3,661L689.3,661z"/></svg>