<?xml version="1.0" encoding="UTF-8"?><svg xmlns="http://www.w3.org/2000/svg" xmlns:xlink="http://www.w3.org/1999/xlink" version="1.1" id="Layer_1" x="0px" y="0px" viewBox="0 0 24 24" xml:space="preserve"><path stroke="gray" fill="#303C42" d="M23.964 16.232l-1.187-7.72A6.464 6.464 0 0 0 16.353 3H7.647a6.464 6.464 0 0 0-6.424 5.512L.036 16.23a3.004 3.004 0 0 0-.036.463v1.265A3.044 3.044 0 0 0 3.04 21a3.053 3.053 0 0 0 2.627-1.509L8.287 15h7.426l2.62 4.491A3.051 3.051 0 0 0 20.959 21 3.044 3.044 0 0 0 24 17.96v-1.266c0-.155-.012-.31-.036-.462z"/><path stroke="gray" fill="#F2F2F2" d="M23 17.96c0 1.124-.916 2.04-2.04 2.04a2.049 2.049 0 0 1-1.764-1.013l-2.764-4.739A.5.5 0 0 0 16 14H8a.5.5 0 0 0-.432.248l-2.764 4.74A2.049 2.049 0 0 1 3.04 20 2.043 2.043 0 0 1 1 17.96v-1.266c0-.103.008-.206.024-.31l1.187-7.72A5.47 5.47 0 0 1 7.647 4h8.706a5.47 5.47 0 0 1 5.436 4.664l1.187 7.721c.016.103.024.206.024.31v1.264z"/><path stroke="gray" fill="#303C42" d="M9.5 8H8V6.5a.5.5 0 0 0-.5-.5h-1a.5.5 0 0 0-.5.5V8H4.5a.5.5 0 0 0-.5.5v1a.5.5 0 0 0 .5.5H6v1.5a.5.5 0 0 0 .5.5h1a.5.5 0 0 0 .5-.5V10h1.5a.5.5 0 0 0 .5-.5v-1a.5.5 0 0 0-.5-.5z"/><path stroke="gray" fill="#303C42" d="M17 8c.551 0 1-.449 1-1s-.449-1-1-1-1 .449-1 1 .449 1 1 1z"/><path  stroke="gray" fill="#303C42" d="M15 8c-.551 0-1 .449-1 1s.449 1 1 1 1-.449 1-1-.449-1-1-1z"/><linearGradient id="SVGID_1_" gradientUnits="userSpaceOnUse" x1="17.018219" y1="7.01828" x2="23.3026733" y2="13.3027344"><stop offset="0" stop-color="#000" stop-opacity="0.1"/><stop offset="1" stop-color="#000" stop-opacity="0"/></linearGradient><path fill="url(#SVGID_1_)" d="M18 7c0 .551-.449 1-1 1a.993.993 0 0 1-.685-.279l6.294 6.276-.508-3.302-4.351-4.351-.006.005c.154.176.256.4.256.651z"/><linearGradient id="SVGID_2_" gradientUnits="userSpaceOnUse" x1="15.018219" y1="9.01828" x2="23.6517944" y2="17.6518555"><stop offset="0" stop-color="#000" stop-opacity="0.1"/><stop offset="1" stop-color="#000" stop-opacity="0"/></linearGradient><path stroke="gray" fill="url(#SVGID_2_)" d="M22.976 16.385l-.148-.963-7.078-7.078-.006.005c.154.176.256.4.256.651 0 .551-.449 1-1 1a.993.993 0 0 1-.685-.279l8.646 8.621c.024-.124.039-.251.039-.383v-1.265c0-.103-.008-.206-.024-.309z"/><path fill="#303C42" d="M19 8c-.551 0-1 .449-1 1s.449 1 1 1 1-.449 1-1-.449-1-1-1z"/><path stroke="gray" fill="#303C42" d="M17 10c-.551 0-1 .449-1 1s.449 1 1 1 1-.449 1-1-.449-1-1-1z"/><linearGradient id="SVGID_3_" gradientUnits="userSpaceOnUse" x1="6.0046997" y1="8.0046997" x2="13.8527222" y2="15.8527222"><stop offset="0" stop-color="#000" stop-opacity="0.1"/><stop offset="1" stop-color="#000" stop-opacity="0"/></linearGradient><path stroke="gray" fill="url(#SVGID_3_)" d="M6 10H4.5a.497.497 0 0 1-.348-.143l1.99 1.991A.497.497 0 0 1 6 11.5V10zm2-2h1.5c.136 0 .258.055.348.143l-1.99-1.99c.087.09.142.212.142.347V8zm1.857.152c.088.09.143.212.143.348v1a.5.5 0 0 1-.5.5H8v1.5a.5.5 0 0 1-.5.5h-1a.497.497 0 0 1-.348-.143L8.295 14h7.41L9.857 8.152z"/><linearGradient id="SVGID_4_" gradientUnits="userSpaceOnUse" x1="1.2304111" y1="7.8684726" x2="24.0563869" y2="18.5123997"><stop offset="0" stop-color="#FFF" stop-opacity="0.2"/><stop offset="1" stop-color="#FFF" stop-opacity="0"/></linearGradient><path fill="url(#SVGID_4_)" d="M23.964 16.232l-1.187-7.72A6.464 6.464 0 0 0 16.353 3H7.647a6.464 6.464 0 0 0-6.424 5.512L.036 16.23a3.004 3.004 0 0 0-.036.463v1.265A3.044 3.044 0 0 0 3.04 21a3.053 3.053 0 0 0 2.627-1.509L8.287 15h7.426l2.62 4.491A3.051 3.051 0 0 0 20.959 21 3.044 3.044 0 0 0 24 17.96v-1.266c0-.155-.012-.31-.036-.462z"/><metadata><rdf:RDF xmlns:rdf="http://www.w3.org/1999/02/22-rdf-syntax-ns#" xmlns:rdfs="http://www.w3.org/2000/01/rdf-schema#" xmlns:dc="http://purl.org/dc/elements/1.1/"><rdf:Description about="https://iconscout.com/legal#licenses" dc:title="video,game,play,pad,gamepad,handle,console" dc:description="video,game,play,pad,gamepad,handle,console" dc:publisher="Iconscout" dc:date="2017-08-16" dc:format="image/svg+xml" dc:language="en"><dc:creator><rdf:Bag><rdf:li>Those Icons</rdf:li></rdf:Bag></dc:creator></rdf:Description></rdf:RDF></metadata></svg>